<svg width="18" height="16" fill="none" xmlns="http://www.w3.org/2000/svg">
    <mask id="a" maskUnits="userSpaceOnUse" x="0" y="0" width="18" height="16" fill="#ff0000">
        <path fill="#fff" d="M0 0h18v16H0z"/>
        <path fill-rule="evenodd" clip-rule="evenodd" d="M9 2.57A4.532 4.532 0 0 1 12.463 1C14.97 1 17 2.994 17 5.453c0 4.273-7.371 9.308-7.675 9.467a.37.37 0 0 1-.405 0C8.616 14.76 1 9.666 1 5.453 1 2.993 3.031 1 5.537 1A4.47 4.47 0 0 1 9 2.57zM7.991 13.352c.506.376.908.645 1.132.774 1.174-.656 7.067-5.214 7.067-8.672 0 3.458-5.893 8.016-7.067 8.671a13.423 13.423 0 0 1-1.132-.773zm.012-10.655a3.595 3.595 0 0 0 0 0z"/>
    </mask>
    <path fill-rule="evenodd" clip-rule="evenodd" d="M9 2.57A4.532 4.532 0 0 1 12.463 1C14.97 1 17 2.994 17 5.453c0 4.273-7.371 9.308-7.675 9.467a.37.37 0 0 1-.405 0C8.616 14.76 1 9.666 1 5.453 1 2.993 3.031 1 5.537 1A4.47 4.47 0 0 1 9 2.57zM7.991 13.352c.506.376.908.645 1.132.774 1.174-.656 7.067-5.214 7.067-8.672 0 3.458-5.893 8.016-7.067 8.671a13.423 13.423 0 0 1-1.132-.773zm.012-10.655a3.595 3.595 0 0 0 0 0z" fill="#ff0000"/>
    <path d="M12.463 1v.1V1zM9 2.57l-.076.065.075.09.077-.09L9 2.572zm.325 12.35-.046-.09-.009.006.055.084zm-.405 0 .055-.084-.009-.005-.046.089zM5.537 1v.1V1zm3.586 13.125-.05.086.049.028.05-.027-.05-.087zm7.067-8.672h-.1.1zm-1.244-2.734.066-.075-.131.15.066-.075zm1.244 2.733h-.1.1zm-7.067 8.672-.05.087.049.028.05-.027-.05-.088zM8.003 2.696l.066-.076-.132.151.066-.075zm.653.749-.084.055.003.004.08-.059zm.063.068-.066.076.131-.151-.065.075zm-.063-.068-.084.055.003.004.08-.059zM12.464.9a4.632 4.632 0 0 0-3.54 1.605l.152.13A4.432 4.432 0 0 1 12.463 1.1V.9zM17.1 5.453C17.1 2.937 15.022.9 12.463.9v.2c2.452 0 4.437 1.95 4.437 4.353h.2zm-7.728 9.555c.044-.023.199-.124.427-.284a30.993 30.993 0 0 0 3.546-2.923c.944-.91 1.881-1.95 2.583-3.034.7-1.083 1.172-2.219 1.172-3.314h-.2c0 1.04-.45 2.137-1.14 3.205-.69 1.067-1.616 2.096-2.553 2.999a30.781 30.781 0 0 1-3.522 2.903 6.68 6.68 0 0 1-.406.271l.093.177zm-.507-.005a.47.47 0 0 0 .515 0l-.11-.167a.27.27 0 0 1-.295 0l-.11.167zM.9 5.453c0 1.082.488 2.21 1.212 3.29.724 1.081 1.692 2.124 2.666 3.037a32.508 32.508 0 0 0 3.658 2.943c.236.161.393.262.438.285l.092-.177a7.37 7.37 0 0 1-.417-.274 32.35 32.35 0 0 1-3.635-2.924c-.968-.907-1.923-1.938-2.636-3.002C1.564 7.566 1.1 6.477 1.1 5.453H.9zM5.537.9C2.977.9.9 2.937.9 5.453h.2C1.1 3.05 3.085 1.1 5.537 1.1V.9zm3.54 1.606A4.57 4.57 0 0 0 5.535.9l.002.2a4.37 4.37 0 0 1 3.386 1.535l.152-.13zm.095 11.532a13.344 13.344 0 0 1-1.121-.767l-.12.16c.507.377.913.649 1.142.78l.1-.173zm6.918-8.585c0 .837-.358 1.752-.924 2.669-.566.915-1.334 1.824-2.14 2.648-1.616 1.649-3.376 2.945-3.952 3.267l.097.175c.598-.334 2.373-1.644 3.997-3.303.813-.83 1.592-1.75 2.168-2.682.575-.931.954-1.883.954-2.774h-.2zm-1.21-2.658a3.527 3.527 0 0 1 1.21 2.657h.2a3.727 3.727 0 0 0-1.278-2.808l-.131.15zm0 0a3.528 3.528 0 0 1 1.21 2.657h.2a3.728 3.728 0 0 0-1.278-2.808l-.131.15zm1.21 2.657c0 .838-.358 1.753-.924 2.67-.566.915-1.334 1.824-2.14 2.648-1.616 1.649-3.376 2.945-3.952 3.267l.097.175c.598-.334 2.373-1.644 3.997-3.303.813-.83 1.592-1.75 2.168-2.682.575-.931.954-1.883.954-2.775h-.2zm-6.918 8.586a13.335 13.335 0 0 1-1.121-.767l-.12.16c.507.377.913.649 1.142.78l.1-.173zM7.937 2.77c.242.21.456.455.635.729l.167-.11a3.695 3.695 0 0 0-.67-.77l-.132.151zm.638.733c.024.032.05.06.078.085l.131-.151a.321.321 0 0 1-.048-.052l-.16.118zm0 0c.024.032.05.06.078.085l.131-.151a.322.322 0 0 1-.048-.052l-.16.118zm-.638-.733c.242.21.456.455.635.729l.167-.11a3.694 3.694 0 0 0-.67-.77l-.132.151z" fill="#ff0000" mask="url(#a)"/>
</svg>
