<svg xmlns="http://www.w3.org/2000/svg" width="224" height="192" viewBox="0 0 224 192">
  <g id="그룹_1" data-name="그룹 1" transform="translate(-53 -214)">
    <path id="heart" d="M178,32c-20.65,0-38.73,8.88-50,23.89C116.73,40.88,98.65,32,78,32A62.07,62.07,0,0,0,16,94c0,70,103.79,126.66,108.21,129a8,8,0,0,0,7.58,0C136.21,220.66,240,164,240,94a62.07,62.07,0,0,0-62-62ZM128,206.8C109.74,196.16,32,147.69,32,94A46.06,46.06,0,0,1,78,48c19.45,0,35.78,10.36,42.6,27a8,8,0,0,0,14.8,0c6.82-16.67,23.15-27,42.6-27a46.06,46.06,0,0,1,46,46C224,147.61,146.24,196.15,128,206.8Z" transform="translate(37 182.045)" fill="red"/>
    <ellipse id="타원_1" data-name="타원 1" cx="57.5" cy="69" rx="57.5" ry="69" transform="translate(62 219)" fill="red"/>
    <ellipse id="타원_2" data-name="타원 2" cx="57.5" cy="69" rx="57.5" ry="69" transform="translate(153 214)" fill="red"/>
    <ellipse id="타원_3" data-name="타원 3" cx="57.5" cy="69" rx="57.5" ry="69" transform="translate(108 253)" fill="red"/>
  </g>
</svg>
