<svg xmlns="http://www.w3.org/2000/svg" width="74" height="17" fill="none" viewBox="0 0 74 17">
    <path fill="#ffb800" d="M9.5 2l2.063 3.66 4.119.831-2.844 3.094.483 4.174L9.5 12.01l-3.82 1.749.482-4.174L3.318 6.49l4.119-.83L9.5 2zM23.5 2l2.063 3.66 4.119.831-2.844 3.094.483 4.174L23.5 12.01l-3.82 1.749.482-4.174-2.844-3.094 4.119-.83L23.5 2zM37.5 2l2.063 3.66 4.119.831-2.844 3.094.483 4.174L37.5 12.01l-3.82 1.749.482-4.174-2.844-3.094 4.119-.83L37.5 2zM51.5 2l2.063 3.66 4.119.831-2.844 3.094.483 4.174L51.5 12.01l-3.82 1.749.482-4.174-2.844-3.094 4.119-.83L51.5 2z"/>
    <path fill="#E2E2E2" d="M65.5 2l2.063 3.66 4.119.831-2.844 3.094.483 4.174L65.5 12.01l-3.82 1.749.482-4.174-2.844-3.094 4.119-.83L65.5 2z"/>
</svg>
