<svg width="71" height="70" viewBox="0 0 71 70" fill="none" xmlns="http://www.w3.org/2000/svg">
<rect x="0.768799" width="70" height="70" rx="35" fill="#F6F6F6"/>
<g clip-path="url(#clip0_1_126)">
<path d="M51.4959 34.9639C51.4959 30.75 48.6707 27.0808 44.5107 25.1954C45.9592 26.9731 46.8032 29.1159 46.8032 31.4204C46.8032 37.5616 40.8116 42.5416 33.4194 42.5416C32.3899 42.5416 31.3843 42.4459 30.4266 42.2603L28.9182 43.0384C31.3184 44.9239 34.5507 46.0851 38.1181 46.0851C39.1476 46.0851 40.1532 45.9893 41.1109 45.8038L47.3634 49.0291C47.871 49.291 48.4507 48.8333 48.3139 48.2788L47.0665 43.224C49.784 41.1889 51.4959 38.238 51.4959 34.9579V34.9639Z" stroke="#231815" stroke-width="1.24687" stroke-linejoin="round"/>
<path d="M44.5173 25.1897C42.1111 22.2388 38.0409 20.2935 33.426 20.2935C26.0338 20.2935 20.0422 25.2735 20.0422 31.4148C20.0422 34.6949 21.7541 37.6458 24.4716 39.6809L23.2242 44.7357C23.0874 45.2902 23.6671 45.7479 24.1747 45.486L28.9189 43.0388" stroke="#231815" stroke-width="1.24687" stroke-linejoin="round"/>
<path d="M33.3828 29.8466C34.7056 29.8466 35.777 28.7752 35.777 27.4524C35.777 26.1296 34.7056 25.0582 33.3828 25.0582C32.0599 25.0582 30.9885 26.1296 30.9885 27.4524C30.9885 28.7752 32.0599 29.8466 33.3828 29.8466Z" fill="url(#paint0_linear_1_126)" stroke="#231815" stroke-width="1.24687" stroke-linejoin="round"/>
<path d="M33.3833 32.079C30.744 32.079 28.5543 34.0142 28.1565 36.5422C28.0852 36.9957 28.4642 37.3702 28.9233 37.3702H37.8433C38.3024 37.3702 38.6814 36.9957 38.6101 36.5422C38.2123 34.0142 36.0226 32.079 33.3833 32.079Z" fill="url(#paint1_linear_1_126)" stroke="#231815" stroke-width="1.24687" stroke-linejoin="round"/>
</g>
<defs>
<linearGradient id="paint0_linear_1_126" x1="30.9885" y1="25.0582" x2="35.9655" y2="25.2751" gradientUnits="userSpaceOnUse">
<stop stop-color="#66A8FF"/>
<stop offset="1" stop-color="#2656F6"/>
</linearGradient>
<linearGradient id="paint1_linear_1_126" x1="28.092" y1="32.079" x2="39.029" y2="33.0324" gradientUnits="userSpaceOnUse">
<stop stop-color="#66A8FF"/>
<stop offset="1" stop-color="#2656F6"/>
</linearGradient>
<clipPath id="clip0_1_126">
<rect width="33.25" height="31.2089" fill="white" transform="translate(19.1438 19.3956)"/>
</clipPath>
</defs>
</svg>
