<svg width="71" height="70" viewBox="0 0 71 70" fill="none" xmlns="http://www.w3.org/2000/svg">
<rect x="0.758667" width="70" height="70" rx="35" fill="#F6F6F6"/>
<g clip-path="url(#clip0_1_74)">
<path d="M50.6972 27.65H20.8202L21.6684 22.9381C21.8122 22.1395 22.5073 21.5584 23.3188 21.5584H48.1987C49.0102 21.5584 49.7052 22.1395 49.849 22.9381L50.6972 27.65Z" fill="url(#paint0_linear_1_74)"/>
<path fill-rule="evenodd" clip-rule="evenodd" d="M23.3188 22.1872C22.8116 22.1872 22.3772 22.5504 22.2873 23.0495L21.5723 27.0212H31.492V22.1872H23.3188ZM32.7496 22.1872V27.0212H38.768V22.1872H32.7496ZM40.0256 27.0212V22.1872H48.1987C48.7059 22.1872 49.1403 22.5504 49.2302 23.0495L49.9451 27.0212H40.0256ZM38.768 28.2788H32.7496V37.6294L35.3977 35.751C35.6158 35.5964 35.9078 35.5965 36.1257 35.7513L38.768 37.6284V28.2788ZM31.492 28.2788H21.449V46.7703C21.449 47.3491 21.9182 47.8183 22.4971 47.8183H49.0204C49.5992 47.8183 50.0684 47.3491 50.0684 46.7703V28.2788H40.0256V38.8464C40.0256 39.0817 39.8943 39.2972 39.6852 39.4052C39.4762 39.5131 39.2244 39.4953 39.0326 39.359L35.7612 37.035L32.4846 39.3593C32.2928 39.4954 32.0411 39.513 31.8321 39.4051C31.6232 39.2971 31.492 39.0816 31.492 38.8464V28.2788ZM21.0496 22.8267C21.2473 21.7286 22.203 20.9296 23.3188 20.9296H48.1987C49.3145 20.9296 50.2702 21.7286 50.4679 22.8267L51.3161 27.5386C51.3227 27.5753 51.3261 27.6126 51.3261 27.65V46.7703C51.3261 48.0436 50.2938 49.0759 49.0204 49.0759H22.4971C21.2237 49.0759 20.1914 48.0436 20.1914 46.7703V27.65C20.1914 27.6126 20.1947 27.5753 20.2014 27.5386L21.0496 22.8267C21.0496 22.8267 21.0496 22.8267 21.0496 22.8267Z" fill="#231815"/>
</g>
<defs>
<linearGradient id="paint0_linear_1_74" x1="20.1923" y1="20.9297" x2="51.2092" y2="27.531" gradientUnits="userSpaceOnUse">
<stop stop-color="#66A8FF"/>
<stop offset="1" stop-color="#2656F6"/>
</linearGradient>
<clipPath id="clip0_1_74">
<rect width="31.5" height="28.5063" fill="white" transform="translate(20.0087 20.7469)"/>
</clipPath>
</defs>
</svg>
