<svg xmlns="http://www.w3.org/2000/svg" width="18" height="20" viewBox="0 0 18 20">
  <g id="그룹_91" data-name="그룹 91" transform="translate(-1542 -5980)">
    <rect id="사각형_43" data-name="사각형 43" width="18" height="20" transform="translate(1542 5980)" fill="none"/>
    <path id="icon_kakao_1_" data-name="icon_kakao (1)" d="M12,4c-4.97,0-9,3.18-9,7.105a6.922,6.922,0,0,0,4.176,6l-.848,3.164a.258.258,0,0,0,.066.271.251.251,0,0,0,.185.074.268.268,0,0,0,.156-.062l3.645-2.46A11.646,11.646,0,0,0,12,18.211c4.97,0,9-3.18,9-7.105S16.964,4,12,4Z" transform="translate(1539 5978)" fill="#999"/>
  </g>
</svg>
