<svg width="71" height="70" viewBox="0 0 71 70" fill="none" xmlns="http://www.w3.org/2000/svg">
<rect x="0.265869" width="70" height="70" rx="35" fill="#F6F6F6"/>
<g clip-path="url(#clip0_1_111)">
<path d="M29.2946 29.4447L30.3632 31.2536C30.5969 31.649 30.9837 31.9302 31.432 32.0304L33.4811 32.4883C33.5805 32.5132 33.624 32.6374 33.5557 32.7119L32.1671 34.2902C31.8641 34.6347 31.7169 35.0891 31.7603 35.5458L31.9593 37.6376C31.9717 37.7432 31.8661 37.8178 31.7668 37.7743L29.8354 36.9406C29.4149 36.7591 28.9382 36.7591 28.5177 36.9406L26.5864 37.7743C26.4932 37.8178 26.3876 37.737 26.3938 37.6376L26.5928 35.5458C26.6363 35.0891 26.4891 34.6347 26.186 34.2902L24.7975 32.7119C24.7292 32.6312 24.7664 32.507 24.872 32.4883L26.9211 32.0304C27.3694 31.9302 27.7562 31.649 27.9899 31.2536L29.0586 29.4447C29.1145 29.3515 29.2449 29.3515 29.2946 29.4447Z" fill="url(#paint0_linear_1_111)" stroke="#231815" stroke-width="1.24687" stroke-linejoin="round"/>
<path d="M41.4811 29.4447L42.5498 31.2536C42.7834 31.649 43.1703 31.9302 43.6185 32.0304L45.6676 32.4883C45.767 32.5132 45.8105 32.6374 45.7422 32.7119L44.3537 34.2902C44.0506 34.6347 43.9034 35.0891 43.9468 35.5458L44.1458 37.6376C44.1583 37.7432 44.0527 37.8178 43.9533 37.7743L42.022 36.9406C41.6015 36.7591 41.1247 36.7591 40.7042 36.9406L38.7729 37.7743C38.6797 37.8178 38.5741 37.737 38.5804 37.6376L38.7794 35.5458C38.8228 35.0891 38.6756 34.6347 38.3725 34.2902L36.984 32.7119C36.9157 32.6312 36.9529 32.507 37.0585 32.4883L39.1076 32.0304C39.5559 31.9302 39.9428 31.649 40.1764 31.2536L41.2451 29.4447C41.301 29.3515 41.4314 29.3515 41.4811 29.4447Z" fill="url(#paint1_linear_1_111)" stroke="#231815" stroke-width="1.24687" stroke-linejoin="round"/>
<path d="M50.9722 23.8174C50.9722 23.1313 50.416 22.5751 49.7299 22.5751H20.8031C20.117 22.5751 19.5608 23.1313 19.5608 23.8174V43.191C19.5608 43.8771 20.117 44.4333 20.8031 44.4333H30.0644C30.7505 44.4333 31.3067 44.9895 31.3067 45.6756V49.9922C31.3067 50.6108 32.0773 50.8943 32.4782 50.4231L37.202 44.8706C37.438 44.5932 37.784 44.4333 38.1482 44.4333H49.7299C50.416 44.4333 50.9722 43.8771 50.9722 43.191V23.8174Z" stroke="#231815" stroke-width="1.24687" stroke-linejoin="round"/>
</g>
<defs>
<linearGradient id="paint0_linear_1_111" x1="24.7629" y1="29.3748" x2="33.9345" y2="29.7943" gradientUnits="userSpaceOnUse">
<stop stop-color="#66A8FF"/>
<stop offset="1" stop-color="#2656F6"/>
</linearGradient>
<linearGradient id="paint1_linear_1_111" x1="36.9495" y1="29.3748" x2="46.121" y2="29.7943" gradientUnits="userSpaceOnUse">
<stop stop-color="#66A8FF"/>
<stop offset="1" stop-color="#2656F6"/>
</linearGradient>
<clipPath id="clip0_1_111">
<rect width="33.25" height="31.0636" fill="white" transform="translate(18.6409 21.6557)"/>
</clipPath>
</defs>
</svg>
