<svg xmlns="http://www.w3.org/2000/svg" width="21" height="20" viewBox="0 0 21 20">
  <g id="그룹_90" data-name="그룹 90" transform="translate(-1491 -5980)">
    <rect id="사각형_42" data-name="사각형 42" width="21" height="20" transform="translate(1491 5980)" fill="none"/>
    <path id="icon_youtube" d="M22.062,6.94a2.632,2.632,0,0,0-1.856-1.859C18.567,4.641,12,4.641,12,4.641s-6.567,0-8.205.438A2.628,2.628,0,0,0,1.938,6.938,27.448,27.448,0,0,0,1.5,12a27.414,27.414,0,0,0,.438,5.06,2.632,2.632,0,0,0,1.856,1.859c1.638.441,8.205.441,8.205.441s6.567,0,8.205-.441a2.628,2.628,0,0,0,1.856-1.859A27.413,27.413,0,0,0,22.5,12,27.413,27.413,0,0,0,22.062,6.94Zm-12.148,8.2V8.859l5.438,3.117Z" transform="translate(1489.5 5978.307)" fill="#999"/>
  </g>
</svg>
