<svg xmlns="http://www.w3.org/2000/svg" width="18" height="20" viewBox="0 0 18 20">
  <g id="그룹_89" data-name="그룹 89" transform="translate(-1443 -5980)">
    <rect id="사각형_41" data-name="사각형 41" width="18" height="20" transform="translate(1443 5980)" fill="none"/>
    <path id="icon_instagram" d="M8.289,3.054C9.249,3.01,9.556,3,12,3s2.751.01,3.711.054a6.606,6.606,0,0,1,2.185.418A4.6,4.6,0,0,1,20.528,6.1a6.605,6.605,0,0,1,.418,2.185C20.99,9.249,21,9.556,21,12s-.01,2.751-.054,3.711a6.6,6.6,0,0,1-.418,2.185A4.6,4.6,0,0,1,17.9,20.528a6.6,6.6,0,0,1-2.185.418C14.751,20.99,14.444,21,12,21s-2.751-.01-3.711-.054A6.605,6.605,0,0,1,6.1,20.528,4.6,4.6,0,0,1,3.472,17.9a6.606,6.606,0,0,1-.418-2.185C3.01,14.751,3,14.444,3,12s.01-2.751.054-3.711A6.606,6.606,0,0,1,3.472,6.1,4.6,4.6,0,0,1,6.1,3.472,6.607,6.607,0,0,1,8.289,3.054Zm7.347,1.62C14.688,4.631,14.4,4.622,12,4.622h0c-2.4,0-2.688.009-3.637.052a4.979,4.979,0,0,0-1.671.31A2.98,2.98,0,0,0,4.984,6.692a4.979,4.979,0,0,0-.31,1.671C4.631,9.312,4.622,9.6,4.622,12s.009,2.688.052,3.637a4.98,4.98,0,0,0,.31,1.671,2.98,2.98,0,0,0,1.708,1.708,4.977,4.977,0,0,0,1.671.31c.949.043,1.233.053,3.637.053s2.688-.009,3.637-.053a4.978,4.978,0,0,0,1.671-.31,2.98,2.98,0,0,0,1.708-1.708,4.977,4.977,0,0,0,.31-1.671c.043-.949.053-1.234.053-3.637s-.009-2.688-.053-3.637a4.978,4.978,0,0,0-.31-1.671,2.98,2.98,0,0,0-1.708-1.708A4.978,4.978,0,0,0,15.637,4.674ZM9,12a3,3,0,1,0,3-3A3,3,0,0,0,9,12ZM7.378,12A4.622,4.622,0,1,1,12,16.622,4.622,4.622,0,0,1,7.378,12ZM16.8,8.276a1.08,1.08,0,1,0-1.08-1.08A1.08,1.08,0,0,0,16.8,8.276Z" transform="translate(1440 5978)" fill="#999" fill-rule="evenodd"/>
  </g>
</svg>
