<svg width="71" height="70" viewBox="0 0 71 70" fill="none" xmlns="http://www.w3.org/2000/svg">
<rect x="0.753662" width="70" height="70" rx="35" fill="#F6F6F6"/>
<g clip-path="url(#clip0_1_46)">
<path d="M34.8592 19.0521C35.4034 18.7063 36.0984 18.7063 36.6426 19.0521L39.8377 21.0825C40.0744 21.2329 40.3453 21.321 40.6252 21.3386L44.4052 21.576C45.0488 21.6164 45.6109 22.0253 45.8476 22.6251L47.2353 26.1428C47.3387 26.405 47.5071 26.6365 47.7246 26.8157L50.6445 29.2219C51.1428 29.6326 51.3583 30.2946 51.1971 30.9199L50.2529 34.5825C50.1828 34.8545 50.1827 35.1399 50.2528 35.412L51.1975 39.0809C51.3584 39.7061 51.143 40.3679 50.6448 40.7785L47.7246 43.1849C47.5071 43.3641 47.3387 43.5956 47.2353 43.8578L45.8476 47.3755C45.6109 47.9753 45.0488 48.3842 44.4052 48.4246L40.6252 48.662C40.3453 48.6796 40.0744 48.7677 39.8377 48.9181L36.6426 50.9485C36.0984 51.2943 35.4034 51.2943 34.8592 50.9485L31.6641 48.918C31.4274 48.7676 31.1565 48.6795 30.8767 48.662L27.1014 48.4246C26.4585 48.3842 25.8968 47.9761 25.6598 47.3772L24.2663 43.8561C24.163 43.595 23.9952 43.3644 23.7787 43.1856L20.862 40.7785C20.3645 40.3679 20.1494 39.7065 20.3103 39.0817L21.2551 35.412C21.3252 35.1399 21.3252 34.8545 21.255 34.5825L20.3106 30.9191C20.1495 30.2942 20.3646 29.6326 20.8623 29.2219L23.7787 26.8149C23.9952 26.6362 24.163 26.4056 24.2663 26.1445L25.6598 22.6234C25.8968 22.0245 26.4585 21.6164 27.1014 21.576L30.8767 21.3386C31.1565 21.321 31.4274 21.2329 31.6641 21.0826L34.8592 19.0521Z" stroke="#231815" stroke-width="1.24687" stroke-linejoin="round"/>
<path d="M24.6658 32.2562H27.7002C29.1684 32.2562 29.8169 32.9842 29.8169 33.8407C29.8169 34.4891 29.4743 34.9541 28.9849 35.156C29.4437 35.3212 29.9821 35.7433 29.9821 36.5325C29.9821 37.5297 29.2357 38.3494 27.7185 38.3494H24.6658V32.2562ZM27.3943 34.6054C27.8837 34.6054 28.0856 34.3546 28.0856 34.0242C28.0856 33.6449 27.8103 33.4614 27.3821 33.4614H26.3971V34.6115H27.3943V34.6054ZM26.3971 37.1504H27.3086C27.8959 37.1504 28.1468 36.8934 28.1468 36.4591C28.1468 36.0736 27.9082 35.8045 27.3453 35.8045H26.3971V37.1504Z" fill="url(#paint0_linear_1_46)"/>
<path d="M35.3586 35.8841H32.5811V37.0281H35.6829L35.481 38.3495H30.8621V32.2562H35.4748V33.5777H32.5811V34.5565H35.3586V35.8779V35.8841Z" fill="url(#paint1_linear_1_46)"/>
<path d="M37.965 36.5022C38.069 37.0345 38.4361 37.2547 39.0172 37.2547C39.5556 37.2547 39.8064 37.0651 39.8064 36.7102C39.8064 36.3126 39.5373 36.1596 38.5707 35.9272C36.772 35.4928 36.4172 34.8382 36.4172 34.0123C36.4172 32.9906 37.1697 32.1342 38.8643 32.1342C40.5589 32.1342 41.3481 33.0273 41.4338 33.9878H39.7086C39.6596 33.6636 39.4944 33.3271 38.8582 33.3271C38.4483 33.3271 38.1975 33.4801 38.1975 33.8104C38.1975 34.1408 38.4238 34.2693 39.3598 34.5017C41.238 34.9728 41.6112 35.6457 41.6112 36.5145C41.6112 37.6585 40.7302 38.4538 38.9377 38.4538C37.2553 38.4538 36.3621 37.6646 36.2214 36.4961H37.9589L37.965 36.5022Z" fill="url(#paint2_linear_1_46)"/>
<path d="M43.6867 33.5777H41.9431V32.2562H47.1983V33.5777H45.4731V38.3495H43.6867V33.5777Z" fill="url(#paint3_linear_1_46)"/>
</g>
<defs>
<linearGradient id="paint0_linear_1_46" x1="21.0348" y1="28.3795" x2="30.2969" y2="28.6934" gradientUnits="userSpaceOnUse">
<stop stop-color="#66A8FF"/>
<stop offset="1" stop-color="#2656F6"/>
</linearGradient>
<linearGradient id="paint1_linear_1_46" x1="27.5695" y1="28.3796" x2="35.97" y2="28.6378" gradientUnits="userSpaceOnUse">
<stop stop-color="#66A8FF"/>
<stop offset="1" stop-color="#2656F6"/>
</linearGradient>
<linearGradient id="paint2_linear_1_46" x1="32.5403" y1="28.1135" x2="41.9308" y2="28.4246" gradientUnits="userSpaceOnUse">
<stop stop-color="#66A8FF"/>
<stop offset="1" stop-color="#2656F6"/>
</linearGradient>
<linearGradient id="paint3_linear_1_46" x1="38.3539" y1="28.3796" x2="47.5097" y2="28.6863" gradientUnits="userSpaceOnUse">
<stop stop-color="#66A8FF"/>
<stop offset="1" stop-color="#2656F6"/>
</linearGradient>
<clipPath id="clip0_1_46">
<rect width="33.25" height="34.8651" fill="white" transform="translate(19.1287 17.5674)"/>
</clipPath>
</defs>
</svg>
