<svg width="71" height="70" viewBox="0 0 71 70" fill="none" xmlns="http://www.w3.org/2000/svg">
<rect x="0.763672" width="70" height="70" rx="35" fill="#F6F6F6"/>
<g clip-path="url(#clip0_1_97)">
<path d="M20.0801 36.0011V46.6174H24.3081V46.6042C24.3081 44.8271 25.7483 43.3869 27.5253 43.3869C29.3024 43.3869 30.7426 44.8271 30.7426 46.6042V46.6174H41.4051V26.0983H37.4678" stroke="#231815" stroke-width="1.30789" stroke-linecap="round" stroke-linejoin="round"/>
<path d="M24.3086 46.6174C24.3152 48.3879 25.7554 49.8214 27.5258 49.8214C29.2963 49.8214 30.7365 48.3879 30.7431 46.6174" stroke="#231815" stroke-width="1.30789" stroke-linejoin="round"/>
<path d="M52.2858 39.1984L48.1371 31.3171H41.4053V46.6106H43.6316V46.5974C43.6316 44.8203 45.0718 43.3801 46.8488 43.3801C48.6259 43.3801 50.0661 44.8203 50.0661 46.5974V46.6106H52.2924V39.1984H52.2858Z" stroke="#231815" stroke-width="1.30789" stroke-linejoin="round"/>
<path d="M43.6309 46.6174C43.6375 48.3879 45.0776 49.8214 46.8481 49.8214C48.6186 49.8214 50.0588 48.3879 50.0654 46.6174" stroke="#231815" stroke-width="1.30789" stroke-linejoin="round"/>
<path d="M44.5692 33.5565H49.3125L52.2853 39.1983H44.5692V33.5565Z" stroke="#231815" stroke-width="1.30789" stroke-linejoin="round"/>
<path d="M34.7695 27.9478C34.7713 27.9478 34.7728 27.9492 34.7728 27.951C34.7698 31.1923 30.3359 36.1261 28.1715 38.3416C27.5283 39.0001 26.4926 39.0001 25.8493 38.3416C23.6842 36.1254 19.248 31.189 19.248 27.9478C19.248 23.6603 22.7163 20.1854 27.0038 20.1854C31.2902 20.1854 34.7644 23.6585 34.7662 27.9445C34.7662 27.9463 34.7676 27.9478 34.7695 27.9478V27.9478Z" fill="url(#paint0_linear_1_97)" stroke="#231815" stroke-width="1.3125" stroke-linejoin="round"/>
<path d="M27.0039 31.6472C29.1602 31.6472 30.9082 29.8992 30.9082 27.7429C30.9082 25.5866 29.1602 23.8386 27.0039 23.8386C24.8476 23.8386 23.0996 25.5866 23.0996 27.7429C23.0996 29.8992 24.8476 31.6472 27.0039 31.6472Z" stroke="white" stroke-width="1.30789" stroke-linejoin="round"/>
</g>
<defs>
<linearGradient id="paint0_linear_1_97" x1="19.248" y1="20.1854" x2="35.3948" y2="20.7515" gradientUnits="userSpaceOnUse">
<stop stop-color="#66A8FF"/>
<stop offset="1" stop-color="#2656F6"/>
</linearGradient>
<clipPath id="clip0_1_97">
<rect width="35" height="31.5846" fill="white" transform="translate(18.2637 19.2077)"/>
</clipPath>
</defs>
</svg>
